<svg id="Layer_1" xmlns="http://www.w3.org/2000/svg" viewBox="0 0 1080 1080"><defs><style>.cls-1{fill:#fff}</style></defs><path style="fill:#006cfc" d="M372.31 706.12 24.07 612.5 319.5 396l-7.38-355.73 292.5 202.58L948.25 116.1 834.01 458.13l219.48 277.86-363.23 8.29-207.48 298.25-110.47-336.41z"/><path d="m322.52 59.64 280.68 194.4 328.96-121.35-109.35 327.4 210.39 266.36-348.26 7.95-198.93 285.96-105.89-322.49-333.33-89.62 282.82-207.26-7.08-341.35M301.72 20.9l.81 39.15L309.4 391 34.97 592.12 1.36 616.75l40.24 10.82 322.9 86.82 102.52 312.22 12.51 38.11 22.91-32.93 193.13-277.62 338.1-7.72 40.1-.92-24.86-31.48-203.69-257.87 105.92-317.15 13.2-39.52-39.09 14.42-319.2 117.75L333.91 43.2l-32.2-22.3Z"/><path class="cls-1" d="M307.99 554.06v-58.01h58.73v12.37h-42.64V518h40.45v12.37h-40.45v11.31h43.23v12.37h-59.32ZM456.18 554.06v-40.74l-21.53 40.74h-15.03l-21.53-40.74v40.74h-15.66v-58.01h21.28l23.43 43.91 23.43-43.91h21.19v58.01h-15.58ZM555.1 515.86c0 2.9-.42 5.57-1.27 8-.84 2.43-2.2 4.53-4.07 6.29-1.87 1.76-4.3 3.13-7.28 4.12-2.98.99-6.61 1.48-10.89 1.48h-26.01v18.32h-15.66v-58.01h41.67c4.28 0 7.91.49 10.89 1.46s5.41 2.34 7.28 4.1c1.87 1.76 3.23 3.85 4.07 6.27.84 2.42 1.27 5.08 1.27 7.98Zm-15.83.25c0-1.35-.19-2.51-.57-3.48a5.237 5.237 0 0 0-1.88-2.39c-.87-.62-2.01-1.08-3.42-1.37-1.41-.3-3.14-.44-5.19-.44h-22.63v14.95h22.63c2.05 0 3.79-.12 5.19-.36 1.41-.24 2.55-.65 3.42-1.22.87-.58 1.5-1.33 1.88-2.26.38-.93.57-2.07.57-3.42ZM611.72 543.09h-32.34l-5.45 10.98h-17.48l30.35-58.01h17.48l30.36 58.01h-17.48l-5.45-10.98ZM585 531.78h21.19l-10.55-21.36L585 531.78ZM673.27 508.68v45.39h-15.66v-45.39h-24.62v-12.62h64.93v12.62h-24.66ZM708.27 554.06v-58.01H767v12.37h-42.64V518h40.45v12.37h-40.45v11.31h43.23v12.37h-59.32Z"/></svg>