<svg id="Layer_1" xmlns="http://www.w3.org/2000/svg" viewBox="0 0 1080 1080"><defs><style>.cls-1{fill:#fff}</style></defs><path style="fill:#6cb46c" d="M372.31 706.12 24.07 612.5 319.5 396l-7.38-355.73 292.5 202.58L948.25 116.1 834.01 458.13l219.48 277.86-363.23 8.29-207.49 298.25-110.46-336.41z"/><path d="m322.52 59.64 280.68 194.4 328.96-121.35-109.35 327.4 210.39 266.36-348.26 7.95-198.93 285.96-105.89-322.49-333.33-89.62 282.82-207.26-7.08-341.35M301.72 20.9l.81 39.15L309.4 391 34.97 592.12 1.36 616.75l40.24 10.82 322.9 86.82 102.52 312.22 12.51 38.11 22.91-32.93 193.13-277.62 338.1-7.72 40.1-.92-24.86-31.48-203.69-257.87 105.92-317.15 13.2-39.52-39.09 14.42-319.2 117.75L333.91 43.2l-32.2-22.3Z"/><path class="cls-1" d="M311.2 494.58c5.69 0 10.97.49 15.85 1.46 4.88.97 9.37 2.22 13.45 3.74v14.19c-1.6-.9-3.41-1.77-5.43-2.62-2.01-.84-4.2-1.59-6.56-2.24s-4.9-1.17-7.6-1.56c-2.7-.39-5.54-.59-8.53-.59-3.72 0-6.95.27-9.71.8-2.76.53-5.12 1.25-7.09 2.15-1.97.9-3.59 1.95-4.85 3.15-1.27 1.2-2.27 2.47-3 3.82-.73 1.35-1.24 2.73-1.52 4.14-.28 1.41-.42 2.77-.42 4.1 0 1.15.12 2.41.36 3.76.24 1.35.69 2.7 1.35 4.05.66 1.35 1.58 2.65 2.77 3.88 1.18 1.24 2.72 2.34 4.62 3.29 1.9.96 4.19 1.72 6.86 2.3 2.67.58 5.85.87 9.54.87 1.86 0 3.48-.06 4.85-.17 1.38-.11 2.64-.27 3.78-.46 1.14-.2 2.21-.44 3.21-.72 1-.28 2.03-.58 3.1-.89v-7.01h-17.56v-12.71h33.23v29.64c-2.08.7-4.41 1.34-6.99 1.92-2.58.58-5.23 1.07-7.98 1.48-2.74.41-5.5.72-8.25.95-2.76.22-5.36.34-7.81.34-3.8 0-7.44-.25-10.93-.76-3.49-.51-6.75-1.29-9.77-2.34-3.03-1.06-5.78-2.4-8.27-4.03-2.49-1.63-4.62-3.57-6.38-5.83-1.76-2.25-3.12-4.83-4.1-7.75s-1.46-6.19-1.46-9.82.51-6.87 1.52-9.79c1.01-2.93 2.43-5.52 4.24-7.77 1.82-2.25 4-4.19 6.54-5.83 2.55-1.63 5.35-2.98 8.4-4.03 3.05-1.06 6.32-1.84 9.79-2.34 3.48-.51 7.06-.76 10.74-.76ZM405.34 543.09H373l-5.45 10.98h-17.48l30.35-58.01h17.48l30.35 58.01h-17.48l-5.45-10.98Zm-26.72-11.31h21.19l-10.56-21.36-10.64 21.36ZM492.57 554.06l-39.14-39.85v39.85h-15.66v-58.01h17.01l39.18 40.02v-40.02h15.58v58.01h-16.97ZM574.3 543.09h-32.34l-5.45 10.98h-17.48l30.35-58.01h17.48l30.36 58.01h-17.48l-5.45-10.98Zm-26.72-11.31h21.19l-10.55-21.36-10.64 21.36ZM660.18 512.39c-1.1-.53-2.55-1.14-4.35-1.82-1.8-.68-3.84-1.32-6.12-1.92a72.5 72.5 0 0 0-7.43-1.52c-2.67-.41-5.42-.61-8.23-.61-2.25 0-4.17.07-5.76.21-1.59.14-2.93.32-4.01.55-1.08.23-1.94.49-2.58.78-.63.3-1.12.6-1.46.91-.34.31-.56.62-.65.93-.1.31-.15.59-.15.84 0 .84.42 1.58 1.27 2.22.84.63 2 1.2 3.46 1.69s3.17.96 5.11 1.39c1.94.44 4 .89 6.18 1.35s4.43.97 6.76 1.52c2.32.55 4.57 1.19 6.75 1.92 2.18.73 4.24 1.58 6.18 2.55 1.94.97 3.64 2.1 5.11 3.4 1.46 1.29 2.62 2.79 3.46 4.48.84 1.69 1.27 3.62 1.27 5.78 0 2.79-.49 5.18-1.48 7.18s-2.3 3.69-3.95 5.07-3.55 2.48-5.72 3.31c-2.17.83-4.44 1.47-6.82 1.92-2.38.45-4.79.75-7.22.89s-4.75.21-6.94.21c-5.74 0-11.05-.47-15.94-1.42-4.88-.94-9.2-2.12-12.94-3.53v-13.85c3.86 2.14 8.25 3.81 13.19 5.02s10.22 1.82 15.85 1.82c3.32 0 6.03-.18 8.13-.53 2.1-.35 3.74-.8 4.92-1.35 1.18-.55 1.98-1.15 2.41-1.79.42-.65.63-1.27.63-1.86 0-.93-.42-1.74-1.27-2.43-.84-.69-2-1.29-3.46-1.82-1.46-.52-3.17-1-5.11-1.44-1.94-.44-4-.87-6.19-1.31-2.18-.44-4.43-.91-6.73-1.41a77.99 77.99 0 0 1-6.73-1.79c-2.18-.69-4.24-1.49-6.18-2.41-1.94-.91-3.65-2-5.11-3.25-1.46-1.25-2.62-2.7-3.46-4.35-.84-1.65-1.27-3.55-1.27-5.72 0-2.56.45-4.77 1.35-6.63.9-1.86 2.12-3.44 3.65-4.75 1.53-1.31 3.31-2.37 5.32-3.19 2.01-.82 4.13-1.45 6.35-1.9 2.22-.45 4.48-.76 6.76-.93 2.28-.17 4.45-.25 6.5-.25 2.25 0 4.57.11 6.95.34 2.38.23 4.72.54 7.03.95 2.31.41 4.54.88 6.69 1.41 2.15.53 4.14 1.1 5.97 1.69v13.43ZM712.32 508.68v45.39h-15.66v-45.39h-24.61v-12.62h64.93v12.62h-24.66ZM747.32 554.06v-58.01h58.73v12.37h-42.64V518h40.45v12.37h-40.45v11.31h43.23v12.37h-59.32Z"/></svg>