<svg id="Layer_1" xmlns="http://www.w3.org/2000/svg" viewBox="0 0 1080 1080"><defs><style>.cls-1{fill:#fff}</style></defs><path style="fill:#dc0f5c" d="M372.31 706.12 24.07 612.5 319.5 396l-7.38-355.73 292.5 202.58L948.25 116.1 834.01 458.13l219.48 277.86-363.23 8.29-207.48 298.25-110.47-336.41z"/><path d="m322.52 59.64 280.68 194.4 328.96-121.35-109.35 327.4 210.39 266.36-348.26 7.95-198.93 285.96-105.89-322.49-333.33-89.62 282.82-207.26-7.08-341.35M301.72 20.9l.81 39.15L309.4 391 34.97 592.12 1.36 616.75l40.24 10.82 322.9 86.82 102.52 312.22 12.51 38.11 22.91-32.93 193.13-277.62 338.1-7.72 40.1-.92-24.86-31.48-203.69-257.87 105.92-317.15 13.2-39.52-39.09 14.42-319.2 117.75L333.91 43.2l-32.2-22.3Z"/><path class="cls-1" d="M327.25 515.86c0 2.9-.42 5.57-1.27 8-.84 2.43-2.2 4.53-4.07 6.29-1.87 1.76-4.3 3.13-7.28 4.12-2.98.99-6.61 1.48-10.89 1.48h-26.01v18.32h-15.66v-58.01h41.67c4.28 0 7.91.49 10.89 1.46s5.41 2.34 7.28 4.1c1.87 1.76 3.23 3.85 4.07 6.27.84 2.42 1.27 5.08 1.27 7.98Zm-15.83.25c0-1.35-.19-2.51-.57-3.48a5.237 5.237 0 0 0-1.88-2.39c-.87-.62-2.01-1.08-3.42-1.37-1.41-.3-3.14-.44-5.19-.44h-22.63v14.95h22.63c2.05 0 3.79-.12 5.19-.36 1.41-.24 2.55-.65 3.42-1.22.87-.58 1.5-1.33 1.88-2.26.38-.93.57-2.07.57-3.42ZM340.21 554.06v-58.01h58.73v12.37H356.3V518h40.45v12.37H356.3v11.31h43.23v12.37h-59.32ZM430.31 554.06h-15.66v-58.01h39.26c4.22 0 7.8.44 10.74 1.31 2.94.87 5.33 2.11 7.18 3.71 1.84 1.6 3.18 3.54 4.01 5.81.83 2.27 1.25 4.79 1.25 7.58 0 2.45-.35 4.59-1.04 6.42-.69 1.83-1.62 3.4-2.79 4.71a16.736 16.736 0 0 1-4.07 3.31c-1.55.9-3.18 1.65-4.9 2.24l19 22.92h-18.32l-17.56-21.36h-17.1v21.36Zm30.95-39.69c0-1.13-.15-2.08-.44-2.87-.3-.79-.81-1.43-1.54-1.92s-1.71-.85-2.93-1.08c-1.22-.23-2.75-.34-4.58-.34h-21.45v12.41h21.45c1.83 0 3.36-.11 4.58-.34 1.22-.23 2.2-.58 2.93-1.08.73-.49 1.25-1.13 1.54-1.92.29-.79.44-1.74.44-2.87ZM565.58 525.02c0 3.71-.41 7.02-1.22 9.9-.82 2.89-1.96 5.4-3.44 7.54a22.23 22.23 0 0 1-5.32 5.45c-2.07 1.49-4.37 2.69-6.9 3.59-2.53.9-5.26 1.56-8.19 1.96-2.93.41-5.98.61-9.16.61h-36.82v-58.01h36.73c3.18 0 6.23.2 9.16.61 2.93.41 5.66 1.06 8.21 1.96 2.55.9 4.86 2.09 6.95 3.57 2.08 1.48 3.86 3.29 5.34 5.45 1.48 2.15 2.62 4.67 3.44 7.54.82 2.87 1.22 6.15 1.22 9.84Zm-15.79 0c0-2.79-.36-5.21-1.08-7.26-.72-2.05-1.87-3.75-3.46-5.09-1.59-1.34-3.67-2.34-6.23-3-2.56-.66-5.69-.99-9.37-.99h-19.46v32.76h19.46c3.69 0 6.81-.33 9.37-.99s4.64-1.67 6.23-3.04c1.59-1.36 2.74-3.07 3.46-5.13.72-2.05 1.08-4.48 1.08-7.26ZM579.85 554.06v-58.01h15.66v58.01h-15.66ZM667.11 512.39c-1.1-.53-2.55-1.14-4.35-1.82-1.8-.68-3.84-1.32-6.12-1.92a72.5 72.5 0 0 0-7.43-1.52c-2.67-.41-5.42-.61-8.23-.61-2.25 0-4.17.07-5.76.21-1.59.14-2.93.32-4.01.55-1.08.23-1.94.49-2.58.78-.63.3-1.12.6-1.46.91-.34.31-.56.62-.65.93-.1.31-.15.59-.15.84 0 .84.42 1.58 1.27 2.22.84.63 2 1.2 3.46 1.69s3.17.96 5.11 1.39c1.94.44 4 .89 6.18 1.35s4.43.97 6.76 1.52c2.32.55 4.57 1.19 6.75 1.92 2.18.73 4.24 1.58 6.18 2.55 1.94.97 3.64 2.1 5.11 3.4 1.46 1.29 2.62 2.79 3.46 4.48.84 1.69 1.27 3.62 1.27 5.78 0 2.79-.49 5.18-1.48 7.18s-2.3 3.69-3.95 5.07-3.55 2.48-5.72 3.31c-2.17.83-4.44 1.47-6.82 1.92-2.38.45-4.79.75-7.22.89s-4.75.21-6.94.21c-5.74 0-11.05-.47-15.94-1.42-4.88-.94-9.2-2.12-12.94-3.53v-13.85c3.86 2.14 8.25 3.81 13.19 5.02s10.22 1.82 15.85 1.82c3.32 0 6.03-.18 8.13-.53 2.1-.35 3.74-.8 4.92-1.35 1.18-.55 1.98-1.15 2.41-1.79.42-.65.63-1.27.63-1.86 0-.93-.42-1.74-1.27-2.43-.84-.69-2-1.29-3.46-1.82-1.46-.52-3.17-1-5.11-1.44-1.94-.44-4-.87-6.19-1.31-2.18-.44-4.43-.91-6.73-1.41a77.99 77.99 0 0 1-6.73-1.79c-2.18-.69-4.24-1.49-6.18-2.41-1.94-.91-3.65-2-5.11-3.25-1.46-1.25-2.62-2.7-3.46-4.35-.84-1.65-1.27-3.55-1.27-5.72 0-2.56.45-4.77 1.35-6.63.9-1.86 2.12-3.44 3.65-4.75 1.53-1.31 3.31-2.37 5.32-3.19 2.01-.82 4.13-1.45 6.35-1.9 2.22-.45 4.48-.76 6.76-.93 2.28-.17 4.45-.25 6.5-.25 2.25 0 4.57.11 6.95.34 2.38.23 4.72.54 7.03.95 2.31.41 4.54.88 6.69 1.41 2.15.53 4.14 1.1 5.97 1.69v13.43ZM719.25 508.68v45.39h-15.66v-45.39h-24.61v-12.62h64.93v12.62h-24.66ZM754.25 554.06v-58.01h58.73v12.37h-42.64V518h40.45v12.37h-40.45v11.31h43.23v12.37h-59.32Z"/></svg>