<svg xmlns="http://www.w3.org/2000/svg" viewBox="0 0 862.47 1639.15"><defs><linearGradient id="_Áåçûìÿííûé_ãðàäèåíò_152" x1="484.73" y1="1401.16" x2="484.73" y2="461.78" gradientTransform="rotate(-1.89 -10812.224 2821.89)" gradientUnits="userSpaceOnUse"><stop offset="0" stop-color="#ff8777"/><stop offset=".98" stop-color="#ffb880"/></linearGradient><linearGradient id="_Áåçûìÿííûé_ãðàäèåíò_151" x1="492.37" y1="1927.68" x2="492.37" y2="1014.83" gradientTransform="rotate(-1.89 -10812.224 2821.89)" gradientUnits="userSpaceOnUse"><stop offset=".02" stop-color="#ffb880"/><stop offset="1" stop-color="#ff8777"/></linearGradient><linearGradient id="_Áåçûìÿííûé_ãðàäèåíò_59" x1="372.01" y1="1334.31" x2="747.97" y2="1334.31" gradientTransform="rotate(-1.89 -10812.224 2821.89)" gradientUnits="userSpaceOnUse"><stop offset="0"/><stop offset=".04" stop-color="#0b0300"/><stop offset=".4" stop-color="#6a1e00"/><stop offset=".69" stop-color="#b03200"/><stop offset=".89" stop-color="#db3f00"/><stop offset="1" stop-color="#ec4400"/></linearGradient><style>.cls-5{opacity:.3}.cls-5,.cls-6,.cls-7,.cls-8{mix-blend-mode:multiply}.cls-5,.cls-7,.cls-8{fill:#d87290}.cls-9{fill:#ab3d52}.cls-10{fill:#f5ffff}.cls-10,.cls-11,.cls-12,.cls-13{mix-blend-mode:soft-light;opacity:.97}.cls-11{fill:#f5af8f}.cls-6{fill:#f3bac0;opacity:.6}.cls-12{fill:#f5d3d2}.cls-13{fill:#f5ee8f}.cls-7{opacity:.31}.cls-8{opacity:.5}</style></defs><g style="isolation:isolate"><g id="Layer_1"><path d="M568.99 1500.94c-2.82-17.02-6.97-42.48-11.51-71.81l-.19-1.3c-6.53-42.3-12.02-80.87-16.31-114.67l-.03-1.21-.25-1.02-.12-.93c-4.11-32.7-7.03-60.5-8.69-82.71l-.28-3.86c-2.84-40.7-.31-50.53.08-51.74 9.1-21.25 87.65-80.9 125.43-109.59 28.05-21.31 44.27-33.73 51.32-41.17l.14-.15c21.68-23.07 42.66-63.53 45.79-88.27 1.35-10.29-2.15-23.6-12.44-47.4-5.79-13.5-13.13-28.83-20.23-43.67-9.99-20.87-20.32-42.44-25.03-56.33-8.28-24.36-18.45-71.69-24.52-99.97l-1.19-5.54C688.6 533.4 699 479.47 704.64 459.91c2.21-7.75 5.05-16.31 8.96-27.02 2.84-7.87 5.84-15.84 9.03-24.28 21.48-56.92 45.83-121.44 34.26-200.01-9.89-67.39-45.55-87.3-65.93-93.17-30.75-8.86-61.17 2.54-74.26 17.87-4.73 5.61-10.01 15.16-16.64 45.98l-2 2.06.25 6.57c-6.58 32.48-12.49 74.62-17.26 108.63-3.08 21.92-5.73 40.85-7.38 48.46-1.79 8.23-4.32 18.26-7 28.88-1.35 5.35-2.74 10.86-4.12 16.44l-.52 2.2c-4.89 19.75-10.31 44.37-10.7 64.33-.32 17.43-13.53 101.11-25.93 165.46-2.31.2-4.67.4-7.07.6-6.59.56-13.55 1.15-20.88 1.77-6.66-37.86-15.56-92.58-26.03-160.08l-.19-1.07c-.08-.44-.17-.85-.23-1.25l-.06-.48c-.35-2.47-.69-4.69-1.02-6.65-.23-1.53-.45-2.9-.64-4.05l-.15-.94c-.21-1.68-.4-2.87-.51-3.51-4.43-28.49-7.66-49.98-8.57-56.05.11-5.61.15-11.38.12-17.04.09-53.54-4.89-118.84-13.34-174.67-14.93-98.74-31.02-110.65-37.96-115.79-32.53-23.9-97.14-6.14-109.71 2.46-3.86 2.66-12.9 8.88-20.7 44.65-2.7 12.39-6.99 37.08-5.4 63.22 1.54 26.21 7.17 63.39 12.15 96.2 2.59 17.07 5.03 33.19 6.33 44.28l.15 1.27c.43 3.64.87 7.34 1.37 10.99 1.18 9.13 2.49 18.39 3.76 27.34 2.09 14.77 4.96 35 4.76 39.69-.59 8.69 2.32 20.83 8.44 45.27 1.17 4.66 2.39 9.54 3.61 14.54l.03.65.43 1.4 15.53 90.7c-7.8-5.01-16.18-8.7-24.99-10.21-23.6-4.04-48.78 4.89-65.68 13.06-18.14 8.7-42.57 24.43-51.77 40.26-6.92 12.1-12.99 35.88-16.72 52.89-11.86 1.15-27.41 4.68-41.98 14.2-41.72 21.4-62.77 64.23-59.03 93.57 3.3 26.49 40.78 129.42 48.7 151 .9 2.85 6.28 19.79 12.55 40.64l.52 1.64c7.55 25.62 17.69 60.91 21.08 79.19 4.13 22.49 13.57 50.52 25.49 75.82l1.94 4.13c4.99 10.34 9.98 19.16 14.42 25.51 9.66 13.85 31.77 25.71 61.94 40.96 5.1 2.58 11.44 5.78 15.92 8.23 2.24 40.62 2.67 223.62 2.39 338.57l-.04 15.07 14.34 4.63c2.38.77 23.25 7.38 53.83 13.12l226.49-67.08Z" style="fill:#fff"/><path d="M694.19 425.91c-3.54 9.69-6.76 19.11-9.39 28.35-14.16 49.08-34.24 219.07-43.9 305.36-3.43 30.84-5.54 50.97-5.54 50.97s-53.44 179.16-90.61 210.1c-23.12 19.23-170.25-12.34-281.06-47.97-67.12-21.63-120.94-44.7-126.03-58.89 0 0-44.55-121.18-47.75-146.85-3.28-25.75 24.31-82.41 97.44-84.74l.07-.51c1-5.32 9.25-47.91 17.66-62.62 4.93-8.47 22.27-22.06 42.77-31.89 17.52-8.47 37.23-14.07 53.27-11.33 26.6 4.58 50.95 40.29 60.9 56.92 2.75 4.53 4.45 7.58 4.81 8.32-.84-5.09-19.75-110-26.58-143.94-1.71-8.67-3.77-17.42-5.81-26 0-.25-.1-.42-.19-.58 0-.25-.1-.42-.1-.5-.09-.25-.1-.42-.1-.42-6.12-25.23-12.4-47.61-11.89-55.1.63-8.92-4.81-41.48-8.64-71.08-.56-4.1-1.02-8.11-1.49-12.04-3.74-32.03-16.06-100.04-18.37-139.26-2.38-39.13 9.88-84.62 17.19-89.64 7.22-4.94 62.39-20.03 85.79-2.83 22.03 16.32 43.06 165.06 42.87 273.78.04 6.3 0 12.43-.15 18.39 0 0 3.56 23.89 8.89 58.14 0 0 .2 1.08.44 3.01.21 1.34.52 3.17.85 5.34.31 1.84.63 3.93.96 6.27.12 1 .32 2 .52 3.09 13.33 85.95 34.06 215.31 39.65 224.52 8.43 13.91 27.68 19.57 36.88 8.52 9.21-10.97 43.86-212.59 44.43-243.59.35-17.47 5.22-40.22 10.63-61.89v-.08c4.14-16.84 8.47-33.11 11.24-45.87 4.52-20.8 14.05-105.74 25.13-159.42 0-.17.07-.42.06-.59.08-.09.08-.17.08-.25v-.17c.07-.17.07-.25.07-.25 4.26-20.88 8.86-36.81 13.3-42.08 16.09-18.83 89.57-33.18 103.98 64.99 12.45 84.55-20.6 154.06-42.29 214.3Z" style="fill:url(#_Áåçûìÿííûé_ãðàäèåíò_152)"/><path class="cls-8" d="m574.71 639.06 16.16 204.65-255.65 126.65-71.53 2.36c-67.12-21.63-120.94-44.7-126.03-58.89 0 0-44.55-121.18-47.75-146.85l37.05 13.55-8.47-37.92 22.96 26.78s14.49 21.77 19.82 23.19c5.34 1.42 84.65-4.39 89.09-47.94 0 0-41.47-50.76-63.01-62.4l.07-.51c1-5.32 9.25-47.91 17.66-62.62 0 0 31.68 51.68 43.69 77.31 12.01 25.54 118.39 5.49 132.34-21.92l-19.09-41.68-27.77-162.2c.09.17.18.33.19.58 4.27 14.8 39.31 135.46 50.14 148.12 11.61 13.39 70.72 3.54 77.69-16.92 5.36-15.79-5.92-97.95-11.25-134.63 13.33 85.95 34.06 215.31 39.65 224.52 8.43 13.91 27.68 19.57 36.88 8.52 9.21-10.97 43.86-212.59 44.43-243.59.35-17.47 5.22-40.22 10.63-61.89l-7.9 243.73Z"/><path class="cls-7" d="M694.19 425.91c-3.54 9.69-6.76 19.11-9.39 28.35-14.16 49.08-34.24 219.07-43.9 305.36l-192.24 18.19s-96.59-161.61-86.64-144.98c2.75 4.53 4.45 7.58 4.81 8.32-.84-5.09-19.75-110-26.58-143.94-1.71-8.67-3.77-17.42-5.81-26 0-.25-.1-.42-.19-.58 0-.25-.1-.42-.1-.5-.09-.25-.1-.42-.1-.42-6.12-25.23-12.4-47.61-11.89-55.1.63-8.92-4.81-41.48-8.64-71.08l.96-1.38s16.07 62.01 36.46 72c20.31 9.91 72.06 12.45 88.11-39.51.15-.43.31-.77.47-1.11.04 6.3 0 12.43-.15 18.39 0 0 3.56 23.89 8.89 58.14 0 0 .2 1.08.44 3.01.21 1.34.52 3.17.85 5.34.31 1.84.63 3.93.96 6.27.12 1 .32 2 .52 3.09 13.33 85.95 34.06 215.31 39.65 224.52 8.43 13.91 27.68 19.57 36.88 8.52 9.21-10.97 43.86-212.59 44.43-243.59.35-17.47 5.22-40.22 10.63-61.89v-.08c4.14-16.84 8.47-33.11 11.24-45.87 4.52-20.8 14.05-105.74 25.13-159.42-1.42 18.01-17.77 216.85-8 235.75 8.61 16.67 56 23 83.2.19Z"/><path d="M549.04 1506.85c-2.86-17.2-7.27-44.22-12.15-75.79v-.08c-15.27-98.9-34.78-242.23-24.27-267.18 16.19-38.56 161.3-136.46 180.85-157.09l.08-.09c19.22-20.45 37.83-56.83 40.36-76.81.87-6.66-3.86-20.19-10.95-36.58-13.92-32.45-37.27-76.26-45.83-101.5-12.93-38.02-29.03-123.88-31.3-129.09-2.27-5.3-31.52-23.89-46.4-24.49-14.88-.6-55.55 3.43-120.1 8.75-64.47 5.32-117.85-4.5-129.9-.75-2.49.84-4.77 3.01-6.68 6.18h-.08v.09c0 .08-.08.09-.08.09-.08.17-.23.51-.47.94-6.89 12.4-9.69 37.18-7.14 53.38 3.38 21.04 92.81 64.77 121.46 65.42 28.65.65 89.15-13.02 89.15-13.02s2.54 43.91 2.2 48.7c-.18 2.02-26.88 17.34-60.96 37.86-.25.09-.41.27-.66.36-8.64 5.24-17.69 10.83-26.9 16.59-40.72 25.36-84.25 54.58-104.41 76.99 0 0-179.85-3.13-217.2-25.9 0 0 5.81 18.19 12.79 41.39l.09.17c8.32 28.19 18.47 63.53 22.05 82.89 4.5 24.53 15.36 53.39 25.72 74.62v.08c4.51 9.34 8.97 17.25 12.76 22.67 12.25 17.56 75.86 42.33 80.38 49.4 4.43 7.16 3.59 350.22 3.59 350.22s41.54 13.41 95.06 18.67l158.96-47.08Z" style="fill:url(#_Áåçûìÿííûé_ãðàäèåíò_151)"/><path class="cls-7" d="m342.76 652.35-.08.09v-.08h.08ZM354.86 939.74c20.16-22.41 63.69-51.64 104.41-76.99-64.51 44.78-108.06 111.53-108.06 111.53-87.84 42.61-133.15 104.22-152.92 138.62-10.36-21.23-21.21-50.09-25.72-74.62-3.58-19.36-13.73-54.7-22.05-82.89l-.09-.17c-6.98-23.19-12.79-41.39-12.79-41.39 37.36 22.78 217.2 25.9 217.2 25.9ZM459.27 862.75c8.62-5.99 17.58-11.58 26.9-16.59-8.64 5.24-17.69 10.83-26.9 16.59ZM722.97 893.24c-63.08-8.49-168.85-69.23-168.85-69.23-23.59 2.54-46.24 10.59-67.28 21.78 34.08-20.52 60.77-35.84 60.96-37.86.34-4.8-2.2-48.7-2.2-48.7s-60.5 13.67-89.15 13.02c-28.65-.65-118.08-44.37-121.46-65.42-2.55-16.2.24-40.98 7.14-53.38-2.82 6.14-14.52 35.74 13.18 58.58 31.07 25.59 184.82 34.11 209.92 21.36 25.02-12.75 80.61-70.75 80.61-70.75 2.27 5.21 18.37 91.07 31.3 129.09 8.56 25.24 31.91 69.05 45.83 101.5Z"/><path class="cls-8" d="m545.6 759.24 48.54-14.85-47.45 30.2-1.09-15.35z"/><path class="cls-8" d="m545.6 759.24 2.2 48.7s-101.52 10.81-192.94 131.8c0 0-93.88.86-148.65-9.6l-35.09-39.75-44.16-109.85-8.47-37.92 28.57 45.17s18.23 46.32 25.85 60.39c7.62 14.07 43.29 34.36 55.59 33.56 12.3-.8 45.44-20.99 49.13-29.46 3.7-8.47-27.27-107.63-27.27-107.63s-42.24-48.78-63.01-62.4c0 0 54.92 26.44 63.99 36.08 9.07 9.64 40.39 103.25 58.19 112.21 17.79 8.96 56.41-1.86 66.86-10.56 10.45-8.7 17.46-68.98 17.46-68.98s47.99 20.4 62.61 21.25c14.62.85 89.15-13.02 89.15-13.02Z"/><path class="cls-11" d="M357.51 645.32c-8.11.08-12.78 33.75 1.35 40.83 14.13 7.08 101.77-.19 121.84-18.75 20.07-18.56-33.72-22.96-123.19-22.09Z"/><path d="M362.3 687.3s23.16 7.11 65.86 1.12c42.7-5.98 70.13-24.19 71.66-31.99s-45.47-8.14-45.47-8.14 29.9 3.84 29.14 13.45c-.76 9.61-70.53 34.9-121.19 25.56Z" style="fill:#e86c7c"/><path class="cls-12" d="M367.57 644.95s-4.85 22.65 1.07 43.33c0 0-6.18-.3-11.17-2.97s-13.74-28.45.03-39.99l10.06-.37ZM454.35 648.3s-7.51 5.51-5.72 11.42 28.7 8.17 28.7 8.17 7.67-3.03 5.38-9.01-28.35-10.58-28.35-10.58Z"/><path class="cls-11" d="M273.13 849.5s-1.95 19.79-41.43 29.32c-1.75.39-3.65-1.22-5.51-4.27-5.94-9.46-11.3-32.03-8.86-47.06l.36-1.69c.14-.84.28-1.69.51-2.45.08-.17.07-.34.15-.42 3.82-11.38 21.45-16.58 35.75-8.15 7.88 4.61 14.71 13.37 17.78 27.45 0 .08 0 .17.09.25.49 2.17.9 4.5 1.16 7.01ZM378.25 811.78c-.52 1.86-1.07 3.31-1.71 4.25-4.39 6.78-29.45 23.3-54.78 11.38-.68-.31-1.28-.71-1.89-1.2-2.67-2.18-4.65-6.14-6.07-11.05v-.25c-4.48-15.97-2.77-42.81 4.74-59.51 2.51-5.37 5.55-9.75 9.16-12.31 15.67-11.01 34.35-4.83 44.06 7.02.17.16.26.33.35.49 1.66 2.04 3.08 4.26 4.16 6.58.27.58.54 1.16.73 1.82 5.44 14.68 4.39 41.33 1.24 52.77Z"/><path class="cls-8" d="m371.77 750.12 2.58 4.37c-8.65-10.21-35.73-21.82-49.74-1.21-14.81 21.9-11.5 56.12-10.81 61.64-5.9-21.13-1.02-61.34 13.92-71.82 15.67-11.01 34.35-4.83 44.06 7.02Z"/><path class="cls-8" d="m377.01 759.01-2.67-4.53c.87.89 1.49 1.8 1.94 2.71.27.58.54 1.16.73 1.82ZM271.88 842.24c-2.3-6.22-13.72-33.97-38.17-24.43-27.02 10.55-8.17 55.17-7.53 56.75-6.47-10.36-12.46-36.53-7.99-51.2 5.45-17.98 45.05-21.22 53.68 18.88Z"/><path class="cls-12" d="M273.13 849.5s-1.95 19.79-41.43 29.32c-1.75.39-3.65-1.22-5.51-4.27 0 0 30.59-4.2 46.94-25.06ZM378.25 811.78c-.52 1.86-1.07 3.31-1.71 4.25-4.39 6.78-29.45 23.3-54.78 11.38-.68-.31-1.28-.71-1.89-1.2 8.91.29 38.03 0 58.37-14.44Z"/><path class="cls-9" d="M393.84 751s48.51 27.54 65.02 29.66c16.51 2.11 81.16-15.96 88.94 27.28l-2.2-48.7s-66.29 13.75-89.15 13.02c-22.86-.73-62.61-21.25-62.61-21.25ZM377.72 818.54s-1.66 7.82-46.67 25.74c-45.01 17.92-91.58 41.73-104.46 42.69-12.87.96-50.43-34.26-50.43-34.26s41.96 32.15 52.33 29.02c10.37-3.13 43.47-20.39 49.13-29.46 5.67-9.07-18.42-78.36-18.42-78.36s22.37 36.93 43.9 50.67c21.53 13.74 63.22 8.11 74.62-6.04Z"/><path class="cls-9" d="M334.99 706.84s8.12 24.51 57.32 55.55l25.25-.83s-50.6-17.58-82.58-54.72Z"/><path class="cls-6" d="M536.79 1430.65c-4.52-12.44-98-277.92-56.01-315.58 42.4-37.92 207.45-106.76 212.68-108.35-19.55 20.63-164.66 118.52-180.85 157.09-10.51 24.94 8.99 167.95 24.18 266.84Z"/><path class="cls-6" d="M549.04 1506.85c-2.86-17.2-7.27-44.22-12.15-75.79v-.08c-15.27-98.9-34.78-242.23-24.27-267.18 16.19-38.56 161.3-136.46 180.85-157.09 0 0-242.03 109.58-336.07 124.35-94.04 14.78-146.35 4.58-146.35 4.58 12.25 17.56 75.86 42.33 80.38 49.4 4.43 7.16 3.59 350.22 3.59 350.22s41.54 13.41 95.06 18.67l158.96-47.08Z"/><path class="cls-8" d="M693.47 1006.72c-19.55 20.63-164.66 118.52-180.85 157.09l-31.83-48.73c42.4-37.92 207.45-106.76 212.68-108.35Z"/><path d="M320.32 1067.33c-3.77 31.89 217.3 2.69 308.56-67.45 63.52-48.83 65.05-83.11 61.09-99.32-3.96-16.21-93.82-66.79-159.78-55.84-65.97 10.95-199.09 131.38-209.86 222.62Z" style="fill:url(#_Áåçûìÿííûé_ãðàäèåíò_59);mix-blend-mode:screen"/><path d="M336.51 1009.53S366.06 892.7 547.8 807.95c0 0-186.38 40.63-211.29 201.58Z" style="fill:#b24d61"/><path class="cls-13" d="M217.52 612.07s62.91-10.62 86.73-29.11c0 0-48.46-10.28-86.73 29.11ZM117.72 719.56s49.23-5.64 69.62-37.31c0 0-50.42-6.27-69.62 37.31ZM314.14 107.28s51.74 7.76 82.49-7.53c0 0-48.35-15.28-82.49 7.53ZM632.49 146.62s61.59 17.88 92.09 42.29c0 0-8.18-32.69-31.69-44.28-23.51-11.59-60.4 1.99-60.4 1.99Z"/><path class="cls-5" d="M167.07 792.68s25.52 6.31 56.35-1.86c30.83-8.17 26.18-41.74 26.18-41.74s-13.39 38.07-82.53 43.6ZM264.47 706.28s46.62 11.52 74.48 8.09c0 0-3.45-6.75-4.17-13.74 0 0-15.02 5.74-70.31 5.65Z"/><path d="m163.82 805.79 34.78 57.72s-21.28-13.97-22.7-19.05c-1.42-5.08-12.07-38.67-12.07-38.67Z" style="fill:#f5a995;mix-blend-mode:soft-light;opacity:.97"/><path class="cls-10" d="M614.54 1023.33s56.8-13.99 67.57-25.22c10.76-11.22 47.2-51.09 46.98-70.73s-47.58-116.31-47.58-116.31 35.45 88.62 29.27 116.91c-6.18 28.29-45.62 74.25-96.22 95.35ZM379.12 1542.59s-59.89-13.56-71.97-25.2c-12.08-11.63-3.32-317.23-3.32-317.23s7.72 282.09 25.17 304.58c17.44 22.49 50.12 37.85 50.12 37.85ZM160.63 946.15s21.38 122.82 41.09 160.96c19.71 38.14 80.91 60.61 80.91 60.61s-45.12-25.02-71.25-77.71c-26.13-52.69-50.75-143.86-50.75-143.86ZM310.81 119.06s-10.78 26.78-6.86 81.31c3.92 54.53 26.88 216.55 26.88 216.55s-20.04-281.38-20.02-297.86ZM725.17 206.65s-10.48 148.28-45.65 223.14c0 0 38.27-64.38 48.7-130.98s-3.04-92.16-3.04-92.16ZM539.9 1509.56c-16.81-82.18-42.25-315.8-42.25-315.8-7.45 130.73 31.3 279.09 41.66 315.97l.59-.18ZM501.29 646.75s45.95 6.73 69.09 2.79c23.13-3.95 29.06-11.37 29.06-11.37l-98.15 8.58Z"/><path class="cls-11" d="M645.84 662.65s-20.99 6.43-37.08.89-9.31-25.38-9.31-25.38 21.35 4.68 46.4 24.49Z"/><path class="cls-8" d="m334.99 706.84 5-12.42s-3.13-34.91 9.45-48.26c0 0-19.91 7.85-14.45 60.67Z"/></g></g></svg>