<?xml version="1.0" encoding="UTF-8"?><svg xmlns="http://www.w3.org/2000/svg" xmlns:xlink="http://www.w3.org/1999/xlink" viewBox="0 0 862.47 1639.15"><defs><style>.cls-1{fill:url(#_Áåçûìÿííûé_ãðàäèåíò_409);}.cls-1,.cls-2,.cls-3,.cls-4,.cls-5,.cls-6,.cls-7{fill-rule:evenodd;}.cls-1,.cls-2,.cls-3,.cls-4,.cls-6,.cls-8,.cls-7,.cls-9,.cls-10{mix-blend-mode:multiply;}.cls-1,.cls-3,.cls-6,.cls-8{opacity:.6;}.cls-11{fill:#fff;}.cls-12{fill:url(#_Áåçûìÿííûé_ãðàäèåíò_152-3);}.cls-2,.cls-3,.cls-8{fill:#f3bac0;}.cls-2,.cls-4{opacity:.2;}.cls-13{fill:url(#_Áåçûìÿííûé_ãðàäèåíò_152);}.cls-14{isolation:isolate;}.cls-15{fill:url(#_Áåçûìÿííûé_ãðàäèåíò_152-2);}.cls-4,.cls-7,.cls-9,.cls-10{fill:#d87290;}.cls-16{fill:url(#_Áåçûìÿííûé_ãðàäèåíò_59-2);}.cls-16,.cls-17{mix-blend-mode:screen;}.cls-18{fill:#f5ffff;}.cls-18,.cls-19{mix-blend-mode:soft-light;opacity:.97;}.cls-5{fill:#b24d61;}.cls-17{fill:url(#_Áåçûìÿííûé_ãðàäèåíò_59);}.cls-6{fill:url(#_Áåçûìÿííûé_ãðàäèåíò_55);}.cls-7{opacity:.3;}.cls-19{fill:#f5ee8f;}.cls-9{opacity:.31;}.cls-10{opacity:.5;}.cls-20{fill:url(#_Áåçûìÿííûé_ãðàäèåíò_152-4);}.cls-21{fill:url(#_Áåçûìÿííûé_ãðàäèåíò_151);}</style><linearGradient id="_Áåçûìÿííûé_ãðàäèåíò_151" x1="-1715.26" y1="-8334.91" x2="-1715.26" y2="-10184.16" gradientTransform="translate(-185.21 10501.05) rotate(173.47) scale(1 -1)" gradientUnits="userSpaceOnUse"><stop offset=".02" stop-color="#ffb880"/><stop offset="1" stop-color="#ff8777"/></linearGradient><linearGradient id="_Áåçûìÿííûé_ãðàäèåíò_152" x1="-1662.33" y1="-9326.81" x2="-1386.94" y2="-9602.19" gradientTransform="translate(-185.21 10501.05) rotate(173.47) scale(1 -1)" gradientUnits="userSpaceOnUse"><stop offset="0" stop-color="#ff8777"/><stop offset=".98" stop-color="#ffb880"/></linearGradient><linearGradient id="_Áåçûìÿííûé_ãðàäèåíò_152-2" x1="-1995.81" y1="-9569.98" x2="-1995.81" y2="-9957.71" xlink:href="#_Áåçûìÿííûé_ãðàäèåíò_152"/><linearGradient id="_Áåçûìÿííûé_ãðàäèåíò_152-3" x1="-1811.41" y1="-9627.28" x2="-1811.41" y2="-10195.33" xlink:href="#_Áåçûìÿííûé_ãðàäèåíò_152"/><linearGradient id="_Áåçûìÿííûé_ãðàäèåíò_152-4" x1="-1642.96" y1="-9612.17" x2="-1642.96" y2="-10103.91" xlink:href="#_Áåçûìÿííûé_ãðàäèåíò_152"/><linearGradient id="_Áåçûìÿííûé_ãðàäèåíò_55" x1="-1591.98" y1="-9913.32" x2="-1591.98" y2="-9919.27" gradientTransform="translate(-185.21 10501.05) rotate(173.47) scale(1 -1)" gradientUnits="userSpaceOnUse"><stop offset="0" stop-color="#b060f4"/><stop offset="1" stop-color="#ffeadb"/></linearGradient><linearGradient id="_Áåçûìÿííûé_ãðàäèåíò_409" x1="-1593.77" y1="-9991.72" x2="-1593.77" y2="-9996.31" gradientTransform="translate(3303.62 10101.29) rotate(-6.53)" gradientUnits="userSpaceOnUse"><stop offset="0" stop-color="#ffeadb"/><stop offset=".99" stop-color="#b060f4"/></linearGradient><linearGradient id="_Áåçûìÿííûé_ãðàäèåíò_59" x1="-6654.33" y1="-3906.02" x2="-6356.78" y2="-3906.02" gradientTransform="translate(-5147.22 6212.66) rotate(168) scale(1 -1)" gradientUnits="userSpaceOnUse"><stop offset="0" stop-color="#000"/><stop offset=".04" stop-color="#0b0300"/><stop offset=".4" stop-color="#6a1e00"/><stop offset=".69" stop-color="#b03200"/><stop offset=".89" stop-color="#db3f00"/><stop offset="1" stop-color="#ec4400"/></linearGradient><linearGradient id="_Áåçûìÿííûé_ãðàäèåíò_59-2" x1="3138.48" y1="24507.42" x2="3416.35" y2="24507.42" gradientTransform="translate(-215.93 12868.63) rotate(-12) scale(1 -.48)" xlink:href="#_Áåçûìÿííûé_ãðàäèåíò_59"/></defs><g class="cls-14"><g id="Layer_1"><g><g><path class="cls-11" d="M395.88,156.06c-15.38,8.23-25.46,22.56-26.96,38.32l-.04,.43c-2.11,28.49,1.2,62.54,5.85,101.41-6.94-13.56-15.15-23.1-24.61-28.56-33.23-19.19-68.43-14.45-88.58-1.23-11.54,7.57-17.86,17.81-17.67,28.42-1.76,28.53-.46,84.51,3.98,171.02l.41,6.08c3.9,78.32,10.07,168.91,15.81,248.12-6.6-11.19-14.97-23.46-23.88-34.68-26.14-32.95-51.22-51.26-74.55-54.42-38.25-5.15-77.43,4.91-93.22,17.6-8.54,6.87-10.84,14.42-11.27,19.54-.59,7.1-1.1,13.23,45.41,105.15l.26,.29c8.93,17.84,35.51,70.98,39.89,96.15,.25,1.48,.49,3.05,.74,4.78l.15,1.02c.2,1.37,.4,2.77,.59,4.17l.17,1.27c.21,1.57,.42,3.18,.62,4.79l.11,.9c1.45,11.73,2.94,26,4.52,41.1,3.47,33.19,7.79,74.5,14.12,111.61l.07,.41c.43,2.52,.87,5.02,1.33,7.53l.12,.67c.46,2.52,.93,5.01,1.43,7.59,3.21,16.49,6.77,31.12,10.64,43.7h0s.02,.07,.02,.07l.04,.14c4.02,12.99,8.28,23.56,13.08,32.42,.62,1.13,1.32,2.35,2.2,3.7h-.01c.73,1.17,1.49,2.28,2.3,3.43l.16,.22c.79,1.09,1.63,2.21,2.5,3.29h0c.8,1.03,1.68,2.07,2.72,3.23,1.15,1.34,2.26,2.5,3.05,3.3,3.77,3.91,8.19,7.8,13.02,11.49,1.23,.95,2.46,1.87,3.75,2.79,2.32,1.69,4.68,3.3,6.93,4.74,7.86,5.11,16.99,10.2,26.96,15.05l.64,.32c1.78,.86,3.58,1.7,5.4,2.56l.88,.41h.05s.19,.1,.19,.1c5.47,2.51,11.29,5.01,17.73,7.61l.95,.38c4.74,1.91,9.7,3.81,14.74,5.66l.06,.02h0s.56,.2,.56,.2c1.97,.72,3.95,1.43,5.91,2.13l.32,.12c.39,.14,.78,.28,1.11,.4l1.56,.54c1.6,.56,3.19,1.1,4.8,1.65l1.08,.37c1.16,.39,2.31,.77,3.65,1.24,.88,.29,1.76,.58,2.63,.86l2.09,.67c.71,.23,1.42,.45,2.12,.7l1,.32c1.3,.41,2.6,.82,4.07,1.29l1.65,.5c3.79,1.18,7.52,2.3,11.19,3.38l.37,.11h0s6.79,1.97,6.79,1.97c.6,.16,1.17,.33,1.74,.5l6.25,1.72c1.67,.46,3.32,.91,4.87,1.33l3.65,.99c1.04,.26,2.06,.53,3.07,.79l1.23,.32c.46,.12,.91,.24,1.28,.34l7.21,1.85c6.24,1.55,12.54,3.05,18.75,4.46l1.81,.41c.62,.14,1.23,.28,1.82,.41,.24,1.26,.46,2.52,.67,3.77l.29,1.59c.09,.49,.18,.97,.26,1.47,.38,2.43,.69,4.87,.99,7.33l.25,1.92c.35,3.14,.64,6.34,.87,9.5l.02,.26c.07,.78,.12,1.63,.17,2.48l.02,.31c.04,.52,.07,1.06,.08,1.62l.03,.73c.03,.62,.08,1.26,.08,1.92l.1,5.11c0,1.03,0,2.11,0,3.15,0,2.11-.03,4.28-.08,6.56-.03,1.43-.06,2.89-.11,4.39l-.21,6.11c-.06,1.38-.12,2.78-.18,4.13l-.03,.68c-.07,1.62-.16,3.29-.25,4.96l-.04,.67c-.25,4.69-.55,9.55-.9,14.51l-.11,1.55c-.09,1.32-.18,2.63-.3,4.15l-.02,.3c-.07,.96-.13,1.93-.22,2.92l-.03,.42c-.15,2.25-.34,4.51-.54,6.81l-.02,.26c-.26,3.51-.56,7.04-.89,10.66l-.08,.97c-.29,3.21-.59,6.45-.88,9.71l-.11,1.01c-.21,2.31-2.64,40.25-8.13,126.27-.59,9.3-1.21,18.89-1.82,28.56l40.46,12.49c.76-11.83,1.57-24.59,2.45-38.42,3.79-59.39,7.71-120.78,8.04-125.1l.1-.96c.29-3.28,.59-6.55,.9-9.96l.08-.96c.33-3.69,.64-7.38,.92-11.04,.22-2.48,.41-4.9,.58-7.32,.1-1.19,.18-2.35,.26-3.5v-.13c.12-1.44,.22-2.85,.32-4.26l.11-1.55c.36-5.21,.67-10.28,.94-15.19l.04-.69c.1-1.8,.19-3.6,.26-5.16l.03-.64c.07-1.52,.14-3.01,.2-4.52l.07-1.91-20.57-.71,20.58,.43,.15-4.42c.04-1.63,.09-3.23,.11-4.78,.05-2.47,.07-4.84,.08-7.17,0-1.23,0-2.45,0-3.66l-.06-3.64c-.01-.5-.02-.99-.04-1.48,0-1.18-.06-2.33-.12-3.52-.03-1.13-.09-2.22-.17-3.28-.07-1.1-.14-2.2-.22-3.23-.27-3.65-.6-7.34-1.01-10.94-.06-.58-.14-1.17-.22-1.75l-.07-.56c-.35-2.93-.73-5.86-1.18-8.76-.13-.87-.29-1.73-.45-2.59l-.2-1.12c-.42-2.42-.84-4.83-1.35-7.26-.29-1.39-.62-2.77-.95-4.15l-.55-2.32c-.46-1.99-.93-3.98-1.47-5.95l-16.24-14.79-1.59-.33c-2.27-.47-6.34-1.32-12.03-2.61l-1.6-.36c-5.92-1.34-11.95-2.78-17.78-4.23l-9.4-2.42c-1.07-.28-2.14-.56-3.23-.83l-3.14-.86c-1.55-.42-3.11-.84-4.7-1.28l-5.74-1.58c-.72-.21-1.44-.42-2.13-.61l-6.58-1.92c-3.49-1.03-7.03-2.09-10.69-3.23l-1.36-.41c-1.37-.44-2.76-.88-4.16-1.32l-.12-.04c-.9-.31-1.81-.6-2.72-.89l-2.13-.68c-.71-.23-1.42-.46-1.92-.62-1.27-.44-2.57-.87-3.85-1.3l-.92-.32c-1.49-.51-2.98-1.02-4.47-1.54l-2.78-.98c-1.85-.66-3.69-1.32-5.56-2.01l-.54-.19h0c-4.65-1.71-9.23-3.47-13.44-5.17l-.94-.38c-5.93-2.4-11.18-4.65-16.07-6.89h0s-.28-.13-.28-.13h0s-.58-.27-.58-.27c-1.64-.77-3.25-1.52-4.73-2.23l-.57-.29c-8.61-4.19-16.25-8.44-22.78-12.68-1.72-1.1-3.47-2.3-5.2-3.56l-.28-.2c-.81-.57-1.58-1.14-2.46-1.83-3.33-2.54-6.2-5.06-8.54-7.49l-.21-.21c-.41-.41-.82-.82-1.18-1.26l-.51-.59c-.35-.39-.7-.77-1.01-1.18l-.33-.32-.07-.18c-.4-.5-.79-1.02-1.15-1.52-.35-.49-.68-.98-1-1.48l-.33-.5-.04-.11c-.23-.35-.42-.71-.54-.93-3.38-6.24-6.7-14.6-9.88-24.83l-.04-.14c-3.41-11.02-6.63-24.31-9.61-39.59-.45-2.32-.89-4.66-1.31-6.93l-.14-.75c-.43-2.35-.84-4.71-1.27-7.18l-.04-.26c-6.12-35.84-10.18-74.71-13.77-109.01-1.6-15.31-3.11-29.76-4.61-41.87l-.11-.93c-.22-1.77-.44-3.48-.66-5.13l-.18-1.33c-.22-1.61-.43-3.14-.65-4.61l-.18-1.22c-.28-1.88-.56-3.7-.87-5.56-3.78-21.72-17.29-55.01-43.79-107.93l-.26-.3c-22.43-44.34-32.72-66.65-37.42-77.63,11.03-4.02,31.63-8.23,54.31-5.17,8.91,1.21,25.98,11.92,47.15,38.39,17.88,22.35,28.56,43.06,30.09,48.15,.9,10.35-9.06,54.6-19.07,89.92l.21,11.92,16.64,51.66,19.16,14.27,44.28,.94,2.31-20.74,18.61-1.49-3.84-48.07,.05-.07c-1.05-13.06-2.22-28.38-3.52-45.45-.98-12.82-2.03-26.62-3.16-41.17l-.02-.21c-6.64-89.3-14.87-204.08-19.64-300.09l-.41-6.13c-4.14-80.73-5.54-135.59-4.16-163.22,6.41-3.79,24.35-8.84,44.73,2.93,7.47,4.32,23.22,32.99,29.31,110.63,4.81,61.22,.3,111.28-3.36,119.76l6.13,6.73-7.35-1.07c-.83,5.68-1.23,9.01-1.23,9.01v5.04s23.83,190.82,23.83,190.82l-1.01,1.48,.11,.87,22.77,17.92,16.78-1.92,18.24-20.9c-.03-1.35-2.92-136.99-3.18-278.15l-.02-.26c-.16-51.79-6.56-103.74-12.22-149.58-5.67-46-10.57-85.74-8.43-115.53,.2-1.56,1.94-3.96,5.38-5.8,3.22-1.73,15.21-6.57,34,3.54,2.85,1.53,5.51,3.13,7.89,4.76l1.64,1.01c.45,.25,.65,.41,.67,.42v-.02s.72,.78,.72,.78c11.55,8.9,12.65,16.5,14.47,29.1,.5,3.47,1.02,7.06,1.8,10.84l3.8,1.67-1.69,.68-.1-.26,.27,.7,28.06,10.54,.43,.16c4.25-2.17,17.98-4.07,26.76-.53,4.15,1.67,4.82,3.61,5.18,4.65l.39,1.03c.15,.37,14.99,37.38,23.66,94.11,.09,.62,.21,1.24,.34,1.87l.03,.13s-.01-.06-.02-.09h0s.15,.94,.15,.94c-.05-.24-.09-.49-.11-.65l.08,.65c2.41,17,3.88,32.41,4.49,47.03-.07,1.19-.04,2.39,.09,3.58l.05,.09c.03,1.13,.05,2.27,.06,3.4l.02,.93,1.09,.07c.3,22.44-1.56,43.71-5.57,63.31l-.27,6.53,27.96,236.2-1.03,1.3,.2,1.74,23.19,18.06,40.47-5.43,17.79-21.93s-6.05-81.15-12.27-165.03l-4.93-66.61,.11-.2c-1.74-23.34-3.32-45.1-4.65-63.32l-1.06-14.53c5.52-1.68,17.47-2.31,29.76,1.74,9.87,3.25,16.79,8.54,18.53,14.15l.84,2.25-.11-.26c2.81,7.51,8.93,50.32,12.61,94.31,2.87,33.34-9.19,68.2-9.3,68.52l-1.13,8.4,12.74,171.88,.05,.55c.05,.47,4.75,47.22,8.41,105.4,.05,1.16,.13,2.36,.22,3.59,.06,.76,.12,1.54,.16,2.35l.02,.4c6.29,100.99,5.75,173.66-1.46,206.3l-87.25,82.79-6.4,14.02c-.55,12.43-12.15,274.15-14.81,395.09l40.93,12.63c1.91-103.82,12.53-349.31,14.65-397.6l85.55-81.18,5.63-9.3c9.95-34.97,11.39-110.72,4.27-225.14-.05-1.2-.14-2.35-.22-3.47-.06-.74-.12-1.46-.14-2.15l-.03-.63c-3.56-56.73-8.12-102.88-8.52-106.95l-12.42-167.57,.12-.39c3.8-12.3,12.96-46.42,9.97-81.02-.07-.86-7.13-84.3-15.31-105.84-12.28-37.47-62.33-49.76-92.57-43.88-22.66,4.4-32.85,17.43-35.53,29.94-.84-12.52-2.23-25.6-4.21-39.62-.06-.51-.13-1.01-.21-1.5-.11-.77-.25-1.55-.41-2.32,0-.01,0-.02,0-.03-9-58.71-23.95-97.54-25.99-102.65-4.76-13.28-14.61-23.25-28.53-28.86-11.38-4.58-24.43-5.68-36.22-4.53-2.97-13.11-9.27-28.2-27.06-42.19l-.5-.58c-1.82-1.49-3.83-2.88-5.98-4.13-3.36-2.25-7-4.43-10.83-6.49-25.23-13.57-51.81-14.87-72.92-3.58Zm-124.73,658.26c1.3,17.09,2.47,32.45,3.53,45.57l-.05,.07,2.03,25.4-6.81-.15-10.24-31.8c3.57-12.86,7.69-28.54,11.16-43.99,.13,1.65,.25,3.28,.37,4.9Zm342.98-329.96l-.11,.2,4.92,66.6,.02,.2c3.7,50.02,7.35,99.05,9.69,130.49l-23.69-200.11c2.93-15.24,4.75-31.26,5.45-47.88,1.11,15.28,2.36,32.41,3.72,50.5Zm-6.13-85.03c0,.99,.03,1.96,.11,2.92l.11,1.55-7.48-13.84c3.32,2.34,5.83,5.62,7.26,9.38Z"/><path class="cls-11" d="M649.16,399.02v.13s0-.09,0-.13Z"/><path class="cls-11" d="M603.97,349.5l.09,.68c-.03-.23-.06-.45-.09-.68Z"/><path class="cls-11" d="M273.77,1167.78v-.02s0,.02,0,.02Z"/><path class="cls-11" d="M292.97,926.1l.76-2.45-.76,2.45Z"/><path class="cls-11" d="M284.95,292.66l.07,2.74c.06-.86,.05-1.78-.07-2.74Z"/><path class="cls-11" d="M81.68,669.8v-.02s0,.02,0,.02Z"/></g><g><path class="cls-21" d="M403.68,199.84c-4.68,63.36,6,161.9,6.3,263.59l.02,.14c.27,143.01,3.19,278.56,3.19,278.56l-16.78,1.92-23.97-192.02s.39-3.16,1.17-8.54c2.88-22.91,10.13-85.62,3.31-111.78-8.44-32.22-32.18-127.67-40.32-142.07-11.93-21.1-73.4-6.02-72.1,5.36-2.04,30.56,.06,94.49,3.92,169.8,0,0,.12,1.06,.23,3.12,.09,.79,.2,1.74,.17,2.82,4.85,97.5,13.17,213.1,19.69,300.73l.02,.14c2.64,33.96,4.84,63.79,6.69,86.68l3.83,48.13-44.28-.94-16.64-51.66s23.38-82.51,19.41-99.86c-3.87-17.5-53.79-97.08-94.62-102.61-40.95-5.51-80.45,8.99-81.23,18.45-.44,5.34,18.67,45.55,43.26,94.15l.17,.12c19.26,38.46,37.83,78.76,41.92,102.24,8.84,53.38,15.17,199.67,45.48,255.63,.47,.86,.94,1.68,1.5,2.53,0,.05,.04,.11,.08,.16,.53,.85,1.09,1.67,1.69,2.51,.59,.81,1.22,1.65,1.87,2.46,0,.03,.04,.05,.07,.07,.66,.86,1.38,1.69,2.12,2.51,.72,.85,1.5,1.68,2.31,2.49,3.18,3.3,6.84,6.5,10.89,9.59,1.02,.79,2.04,1.56,3.12,2.32,1.97,1.43,4.02,2.85,6.17,4.23,3.73,2.41,7.67,4.77,11.82,7.08,2.06,1.14,4.17,2.25,6.32,3.38,2.35,1.22,4.75,2.43,7.22,3.64,1.98,.96,3.98,1.89,6.01,2.84,.03,0,.06,0,.07,.02,2.29,1.03,4.62,2.06,6.94,3.09,1.18,.5,2.35,1,3.53,1.5,1.18,.53,2.36,1.03,3.56,1.49,1.18,.5,2.38,.97,3.59,1.46,4.79,1.93,9.64,3.8,14.54,5.59,1.2,.44,2.43,.88,3.66,1.32,1.23,.47,2.5,.93,3.76,1.36,2.39,.83,4.82,1.68,7.22,2.48,1.23,.41,2.46,.82,3.65,1.24,1.23,.41,2.45,.79,3.65,1.18,1.13,.37,2.29,.73,3.42,1.12,1.48,.46,2.97,.93,4.42,1.4,4.41,1.37,8.76,2.69,13.04,3.94,2.13,.64,4.25,1.25,6.33,1.84,.71,.2,1.38,.39,2.06,.59,1.9,.53,3.79,1.05,5.65,1.56,2.86,.78,5.65,1.53,8.34,2.27,1.28,.32,2.53,.65,3.78,.97,.61,.15,1.22,.33,1.83,.48,2.47,.63,4.83,1.24,7.14,1.83,15.49,3.85,27.18,6.34,32.02,7.33,.32,.07,.61,.15,.86,.2,1.05,.21,1.62,.31,1.62,.31,3.71,13.44,5.76,27.49,6.77,41.51,.07,.87,.14,1.8,.19,2.76,.07,.93,.13,1.92,.15,2.93,.05,1.01,.11,2.05,.11,3.13,.08,2.03,.1,4.18,.12,6.44,0,2.76-.03,5.68-.09,8.72-.03,1.88-.09,3.81-.14,5.81-.1,3.18-.22,6.48-.39,9.89-.13,2.94-.28,5.93-.46,9.04-.32,5.63-.71,11.47-1.17,17.47-.08,1.2-.16,2.39-.27,3.62-.16,2.39-.35,4.78-.57,7.23-.29,3.75-.6,7.54-.94,11.33-.32,3.45-.63,6.96-.95,10.47-.03,.28-.06,.56-.09,.84-.24,2.67-5.39,83.55-10.23,159.22l222.41,68.65c2.44-119.93,14.91-400.49,14.91-400.49l91.58-86.9c11.48-40.35,8.45-139.13,3.51-218.4-.09-2.17-.32-4.18-.38-6.08-3.72-59.42-8.49-106.46-8.49-106.46l-12.74-171.88s13.72-38.7,10.41-77.17c-3.21-38.36-9.71-90.49-14.19-100.62-9.83-22.31-89.42-26.76-88.8-12.66,1.54,21.05,3.62,50.14,6.02,82.23l-.12,.07c7.47,101.09,17.2,231.77,17.2,231.77l-40.47,5.43-.09-.79-28.1-237.36c5.12-25.07,6.63-50.68,5.8-75.32q-.17-.12-.03-.27c-.65-17.62-2.48-34.95-4.75-51.01l-.02-.14c-.06-.54-.12-1.06-.34-1.59,.11-.43-.09-.82-.14-1.22-9.2-60.28-24.96-98.89-24.96-98.89-9.11-26.33-49.99-22.31-62-15.04-4.11-19.93-24.1-52.46-24.1-52.46-17.67-14.52-66.85-7.7-68.88,13.67Z"/><path class="cls-13" d="M124.94,763.96l.17,.12c19.26,38.46,37.83,78.76,41.92,102.24,7.61,45.85,13.34,160.24,34.04,227.06,15.49-81.91,97.97-186.95,97.97-186.95l-44.28-.94-16.64-51.66s23.38-82.51,19.41-99.86c-3.87-17.5-53.79-97.08-94.62-102.61-40.95-5.51-80.45,8.99-81.23,18.45-.44,5.34,18.67,45.55,43.26,94.15Z"/><path class="cls-15" d="M651.75,714.82l82.21,48.26-12.74-171.88s13.72-38.7,10.41-77.17c-3.21-38.36-10.94-90.1-14.19-100.62-11.78-38.11-91.22-41.28-88.8-12.66,1.77,21.03,3.62,50.14,6.02,82.23l-.12,.07c7.47,101.09,17.2,231.77,17.2,231.77Z"/><path class="cls-12" d="M588.86,406.52c-.65-17.62-2.48-34.95-4.75-51.01l-.02-.14c-.06-.54-.12-1.06-.34-1.59,.11-.43-.09-.82-.14-1.22-9.2-60.28-24.96-98.89-24.96-98.89-9.11-26.33-49.99-22.31-62-15.04-4.11-19.93-.65-40.99-37.6-60.86-36.39-19.57-67.61-2.82-69.64,18.56-4.68,63.36,20.27,165.42,20.56,267.11l.02,.14c.27,143.01,3.19,278.56,3.19,278.56l198-22.66-28.1-237.36c5.12-25.07,6.63-50.68,5.8-75.32q-.17-.12-.03-.27Z"/><path class="cls-20" d="M373.6,543.49c13.85-24.16,13.47-230.73-33.77-258.02-39.13-22.6-76.64-1.85-75.34,9.53-2.04,30.56,.06,94.49,3.92,169.8,0,0,.12,1.06,.23,3.12,.09,.79,.2,1.74,.17,2.82l.05,.71c4.83,97.36,13.14,212.61,19.64,300.02l.02,.14,107.88-27.57-23.97-192.02s-1.63-3.67,1.17-8.54Z"/><path class="cls-3" d="M518.37,1009.69s-108.76-88.73-219.37-103.27l-3.85-48.09s254.28-72.37,342.93-23.58c0,0,1.28,89.38-18.09,121.07-19.38,31.68-101.62,53.88-101.62,53.88Z"/><path class="cls-6" d="M268.65,467.92c-.11-2.05-.23-3.12-.23-3.12l.4,5.94c.03-1.08-.08-2.03-.17-2.82Z"/><path class="cls-2" d="M289.55,770.31l.02,.14,91.81-23.47h.09s15.98-4.1,15.98-4.1l-19.44-155.73-4.53-36.28s.39-3.16,1.17-8.54c-3.55,1.34-48.6,17.53-73.79,16.05-21.66-1.27-29.07-66.58-30.94-88.09l19.64,300.02Z"/><path class="cls-4" d="M414.23,740.96l198-22.66-27.13-229.17-.97-8.19c5.12-25.07,6.63-50.68,5.8-75.32-1.56,17.02-6.33,35.65-18.03,52.65l-55.85-8.03s-4.33-178.47-18.36-212.78c0,0,12.62,134.43,3.54,214.48,0,0-52.72,55.13-90.19,10.46,.06,29.05,.21,57.78,.45,85.16,.88,107.33,2.74,193.4,2.74,193.4Z"/><path class="cls-1" d="M583.61,352.58c.26,.92,.37,1.86,.47,2.8-.57-2.25-1.05-3.82-1.28-4.48l.8,1.68Z"/><path class="cls-2" d="M651.75,714.82l17.23,10.1v.03s64.98,38.13,64.98,38.13l-12.74-171.88-43.48,4.73-43.08-112.95-.12,.07c1.58,21.38,3.28,44.09,4.92,66.62v.11c6.22,83.89,12.28,165.04,12.28,165.04Z"/><path class="cls-7" d="M299,906.42s122.45,12.87,195.35,85.43c0,0-56.63-98.04-199.19-133.52l3.85,48.09Z"/><path class="cls-8" d="M424.51,1192.21c-26.67,4.9-113.57-19.37-182.18-41.4,59.61,38.75,176.06,61.53,176.06,61.53,.22,.83,.47,1.68,.66,2.52,3.31,12.66,5.17,25.85,6.11,39,1.84,21.83-5.94,142.24-14.74,258.9l9,2.78c14.73-126.77,28.65-265.74,23.93-299.1-1.73-12.1-5.23-20.46-11.16-23.37-2.21-1.07-4.76-1.39-7.68-.86Z"/><path class="cls-10" d="M242.33,1150.82c59.61,38.75,176.06,61.53,176.06,61.53,.22,.83,13.81-19.25,13.81-19.25v-.03c-2.21-1.07-4.76-1.38-7.69-.86-26.67,4.9-113.57-19.37-182.18-41.39Z"/><path class="cls-17" d="M566.56,1089.44c8.86,21.55-171.03,41.68-256,9.47-59.15-22.42-56.07-43.43-55.93-55.45,.14-12.03,29.23-78.95,83.32-83.4,54.09-4.45,203.28,67.72,228.62,129.38Z"/><path class="cls-16" d="M419.75,761.67c-6.22-9.85,139.97-29.38,211.62-25.06,37.97,2.29,105.93,64.91,68.57,67.61-53.77,3.89-262.4-14.36-280.19-42.54Z"/><path class="cls-18" d="M361.73,1167.93s-70.12-14.75-83.33-20.73c-13.21-5.98-50.26-17.01-55.9-32.94-5.64-15.93-31.32-137.41-31.32-137.41,0,0,31.37,117.25,45.46,138.33,14.09,21.08,125.09,52.74,125.09,52.74Z"/><path class="cls-18" d="M607.16,1573.48l12.62,3.9c5.02-159.48,7.97-367.54,7.97-367.54,0,0-9.43,206.69-20.59,363.65Z"/><path class="cls-18" d="M717.75,916.59s16.99,105.35,10.29,141.82c-6.7,36.46-56.1,72.19-56.1,72.19,0,0,33.9-33.17,42.15-83.23,8.25-50.06,3.65-130.78,3.65-130.78Z"/><path class="cls-19" d="M271.23,299.16s52.93,7.26,81.49,23.96c0,0-11.59-26.51-32.51-33.3-20.92-6.78-48.97,9.34-48.97,9.34Z"/><path class="cls-18" d="M355.87,338s13.78,126.28-3.64,193.83c0,0,21.52-59.11,20-116.55-1.52-57.45-16.36-77.27-16.36-77.27Z"/><path class="cls-19" d="M640.54,399.58s41.51,5.69,63.9,18.79c0,0-9.41-20.11-25.5-26.11-22.31-8.32-43.85,4.56-38.4,7.33Z"/><path class="cls-18" d="M706.92,430.04s10.81,99.03-2.85,152.01c0,0,16.88-46.35,15.68-91.41-1.2-45.05-12.83-60.6-12.83-60.6Z"/><path class="cls-19" d="M400.58,193.64s54.1,9.88,82.82,25.13c0,0-11.33-24.72-32.47-30.77-21.14-6.05-50.36,5.64-50.36,5.64Z"/><path class="cls-19" d="M502.68,240.24c4.9-1.18,9.92-1.94,14.65-1.87,20.1,.31,33.58,16.43,33.58,16.43-12.61-2.52-29.73-3.24-44.81-3.27-.73-3.9-1.89-7.67-3.43-11.29Z"/><path class="cls-18" d="M550.68,264.67s26.6,112.56,23.7,179.15c0,0,7.42-58.43-2.83-114.64-10.25-56.21-20.87-64.51-20.87-64.51Z"/><path class="cls-19" d="M99.4,673.61s42.14-11.31,68.86-10.43c0,0-24.91-9.17-42.79-6.84-17.88,2.33-26.08,17.27-26.08,17.27Z"/><path class="cls-18" d="M104.1,682.9s49.09,86,95.49,119.35c0,0-45.71-25.97-71.89-62.68-26.19-36.7-23.6-56.67-23.6-56.67Z"/><path class="cls-18" d="M425.16,1517.31l7.37,2.27c11.27-118.48,19.84-247.71,11.41-308.72,0,0-8.93,157.98-18.78,306.45Z"/><path class="cls-5" d="M505.27,528.96l2,202.4,14.62-1.67c-16.57-53.43-11.84-122.55-16.62-200.73Z"/><path class="cls-7" d="M505.27,528.96l2,202.4,53.79-6.16c-3.71-11.97-30.05-24.48-30.05-24.48l-22.26-260.43-3.49,88.67Z"/><path class="cls-7" d="M347.2,756.62l33.23-8.48,15.98-4.09-23.98-192.01c.21,87.77,2.41,180.07-25.22,204.57Z"/><path class="cls-7" d="M639.48,549.78c6.21,83.89,12.27,165.04,12.27,165.04l17.23,10.1c-11.52-44.97-20.81-107.69-29.5-175.15Z"/><path class="cls-7" d="M584.03,722.57l27.16-3.11-27.13-229.17c5.22,82.82,5.58,160.63-.02,232.28Z"/><path class="cls-9" d="M731.55,1042.14s-68.11,58.93-200.43,79.09c-132.35,20.19-279.63-28.86-279.63-28.86-31.01-90.59,47.54-185.95,47.54-185.95l-44.28-.94-16.64-51.66s23.38-82.51,19.41-99.86c-6.16,29.26-49.91,59.83-60.07,60.71-9.88,.85-68.63-47.5-72.35-50.6,19.26,38.46,37.83,78.76,41.92,102.24,8.84,53.38,15.17,199.67,45.48,255.63,.47,.86,.94,1.68,1.5,2.53,0,.05,.04,.11,.08,.16,.53,.85,1.09,1.67,1.69,2.51,.59,.81,1.22,1.65,1.87,2.46,0,.03,.04,.05,.07,.07,.66,.86,1.38,1.69,2.12,2.51,.72,.85,1.5,1.68,2.31,2.49,3.18,3.3,6.84,6.5,10.89,9.59,1.02,.79,2.04,1.56,3.12,2.32,1.97,1.43,4.02,2.85,6.17,4.23,3.73,2.41,7.67,4.77,11.82,7.08,2.06,1.14,4.17,2.25,6.32,3.38,2.35,1.22,4.75,2.43,7.22,3.64,1.97,.93,3.98,1.89,6.01,2.84,.03,0,.06,0,.07,.02,2.29,1.03,4.62,2.06,6.94,3.09,1.18,.5,2.35,1,3.53,1.5,1.18,.53,2.36,1.03,3.56,1.49,1.18,.5,2.38,.97,3.59,1.46,4.79,1.93,9.64,3.8,14.54,5.59,1.2,.44,2.43,.88,3.66,1.32,1.23,.47,2.5,.93,3.76,1.36,2.39,.83,4.82,1.68,7.22,2.48,1.23,.41,2.46,.82,3.65,1.24,1.23,.41,2.45,.79,3.65,1.18,1.13,.37,2.29,.73,3.42,1.12,1.48,.46,2.97,.93,4.42,1.4,4.41,1.37,8.76,2.69,13.04,3.94,2.13,.64,4.25,1.25,6.33,1.84,.71,.2,1.38,.39,2.06,.59,1.9,.53,3.79,1.05,5.65,1.56,2.86,.78,5.65,1.53,8.34,2.27,1.28,.32,2.53,.65,3.78,.97,.61,.15,1.22,.33,1.83,.48,2.47,.63,4.83,1.24,7.14,1.83,15.49,3.85,27.18,6.34,32.02,7.33,.32,.07,.61,.15,.86,.2,1.05,.21,1.62,.31,1.62,.31,3.71,13.44,5.76,27.49,6.77,41.51,.07,.87,.14,1.8,.19,2.76,.07,.93,.13,1.92,.15,2.93,.05,1.01,.11,2.05,.11,3.13,.08,2.03,.1,4.18,.12,6.44,0,2.76-.03,5.68-.09,8.72-.03,1.88-.09,3.81-.14,5.81-.1,3.18-.22,6.48-.39,9.89-.13,2.94-.31,5.96-.46,9.04-.32,5.63-.71,11.47-1.17,17.47-.08,1.2-.19,2.39-.27,3.62-.19,2.39-.38,4.81-.57,7.23-.29,3.75-.6,7.54-.94,11.33-.32,3.45-.63,6.96-.95,10.47-.03,.28-.06,.56-.09,.84-.24,2.67-5.39,83.55-10.23,159.22l222.41,68.65c2.44-119.93,14.91-400.49,14.91-400.49l91.58-86.9c11.48-40.35,8.45-139.13,3.51-218.4,2.61,57.62-11.28,166.53-11.28,166.53Z"/><path class="cls-7" d="M414.23,740.96l78.21-8.95c-3.04-4.04-43.06-10.64-43.06-10.64l-20.84-58.19-17.06-115.62c.88,107.33,2.74,193.4,2.74,193.4Z"/></g></g></g></g></svg>