<?xml version="1.0" encoding="UTF-8"?><svg xmlns="http://www.w3.org/2000/svg" xmlns:xlink="http://www.w3.org/1999/xlink" viewBox="0 0 862.47 1639.15"><defs><style>.cls-1{fill:#fff;}.cls-2{fill:#e86c7c;}.cls-3{fill:url(#_Áåçûìÿííûé_ãðàäèåíò_152);}.cls-4{isolation:isolate;}.cls-5{opacity:.3;}.cls-5,.cls-6,.cls-7,.cls-8{mix-blend-mode:multiply;}.cls-5,.cls-7,.cls-8{fill:#d87290;}.cls-9{fill:#ab3d52;}.cls-10{fill:#f5ffff;}.cls-10,.cls-11,.cls-12,.cls-13,.cls-14{mix-blend-mode:soft-light;opacity:.97;}.cls-11{fill:#f5af8f;}.cls-6{fill:#f3bac0;opacity:.6;}.cls-12{fill:#f5d3d2;}.cls-13{fill:#f5ee8f;}.cls-14{fill:#f5a995;}.cls-7{opacity:.31;}.cls-15{fill:url(#_Áåçûìÿííûé_ãðàäèåíò_54);mix-blend-mode:screen;}.cls-8{opacity:.5;}.cls-16{fill:url(#_Áåçûìÿííûé_ãðàäèåíò_151);}</style><linearGradient id="_Áåçûìÿííûé_ãðàäèåíò_152" x1="275.66" y1="-2498.13" x2="275.66" y2="-2892.92" gradientTransform="translate(561.25 3317.39) rotate(-7.63)" gradientUnits="userSpaceOnUse"><stop offset="0" stop-color="#ff8777"/><stop offset=".98" stop-color="#ffb880"/></linearGradient><linearGradient id="_Áåçûìÿííûé_ãðàäèåíò_151" x1="197.47" y1="-1778.14" x2="197.47" y2="-2836.5" gradientTransform="translate(561.25 3317.39) rotate(-7.63)" gradientUnits="userSpaceOnUse"><stop offset=".02" stop-color="#ffb880"/><stop offset="1" stop-color="#ff8777"/></linearGradient><linearGradient id="_Áåçûìÿííûé_ãðàäèåíò_54" x1="-79.73" y1="-2461.86" x2="402.91" y2="-2461.86" gradientTransform="translate(561.25 3317.39) rotate(-7.63)" gradientUnits="userSpaceOnUse"><stop offset="0" stop-color="#ec4400"/><stop offset=".11" stop-color="#db3f00"/><stop offset=".31" stop-color="#b03200"/><stop offset=".6" stop-color="#6a1e00"/><stop offset=".96" stop-color="#0b0300"/><stop offset="1" stop-color="#000"/></linearGradient></defs><g class="cls-4"><g id="Layer_1"><g><path class="cls-1" d="M391.24,446.99c-2.81-3.45-6.11-6.78-9.94-9.66-28.46-21.45-92.36-30.84-119.95-17.62-27.15,13-61.11,73.32-62.65,111.27-.17,4.16-.09,10.17,.23,18.18-16.86,7.69-34.54,15.25-50.52,22.08-32.54,13.91-44.47,19.19-50.5,23.82-2.33,1.78-4.73,3.99-7.15,6.56-9.32,7.45-16.53,19.17-21.47,34.9-2.81,7.44-4.29,14.33-4.4,20.44-.18,9.59,3.77,22.33,11.35,45.9,6.37,19.8,14.3,44.44,17.61,64.76,2.72,16.5,5.23,44.11,7.11,66.33l1.14,13.55c3.48,41.41,5.75,67.35,8.67,78.42,7.36,28.12,50.2,69.61,106.76,87.95,72.3,32.62,179.61,88.32,198.45,113.12,7.64,26.94,12.35,215.95,12.51,386.37l17.79,21.09c20.78,3.58,40.26,5.94,58.49,7.31h75.74c95.71-7.9,138.96-44.71,141.4-46.85l7.26-16.83c-2.27-65.15-18.6-187.21-31.72-285.29-7.17-53.6-14.58-108.96-14.73-120.87,2.1-5.74,12.8-20.18,19.98-29.88,11.54-15.57,24.61-33.22,32.34-50.1,1.71-3.68,3.17-8.14,4.41-13.47,11.77-49.06,16.63-203.21,17.23-223.66,.05-.26,.1-.53,.15-.81,1.61-7.25,6.15-29.92,6.97-58.41,.18-4.82,.23-9.35,.14-13.83v-.95s0,0,0,0c-.02-1.31-.05-2.71-.09-4.17-.07-2.51-.18-5.03-.33-7.58l-.03-.48c-.13-2.11-.29-4.22-.47-6.13l-.08-1.03c-.19-2.08-.4-4.23-.71-6.64-.39-3.56-.88-7.21-1.46-10.84h-.73s.33-.08,.33-.08c-1.2-5.93-2.71-11.5-4.47-16.54-.66-1.9-1.45-3.84-2.4-5.9-3.51-8.82-22.07-45.51-93.19-63.96-1.55-17.21-5.52-27.21-6.09-28.57l-2.38-4.25c-.19-.26-.38-.52-.57-.77-3.81-6.88-14.19-21.13-39.14-33.03-28.89-15.23-61.04-18.75-79.66-19.38-1.56-2.45-3.32-4.83-5.29-7.14-5.17-6.68-28.58-33.14-75.46-33.48-10.71-.52-20.65,.52-29.54,3.1-12.7,3.68-22.92,8.39-30.92,13.06ZM227.37,1014.95l.22,.06c-3.12,.39-6.23,.09-9.14-.85l8.91,.79Zm-10.32-2.74l-.53,1.18c-1.49-.65-2.92-1.45-4.25-2.45l4.79,1.27Z"/><path class="cls-3" d="M234.41,723.01s-15.55-160.35-14.3-191.18c1.25-30.83,31.8-83.86,50.5-92.82,18.7-8.96,74.47-2.17,97.8,15.41,11.17,8.42,16.22,24.72,16.22,24.72,0,0,12.43-15.64,43.49-24.64,31.07-9,82.86,8.27,90.66,38.42,0,0,79.97-5.33,115.64,44.22,0,0,5.54,13.24,5.02,37.52,0,0,80.54,15.03,96.21,59.73,15.66,44.7-.36,117.84-.36,117.84,0,0-84.73,50.07-263.7,47.14-178.96-2.93-237.2-76.35-237.2-76.35Z"/><path class="cls-16" d="M735.33,752.2s-4.73,171.38-16.7,221.27c-.92,3.96-1.94,7.16-3,9.43-14.17,30.94-51.08,68.16-54.18,85.77-3.01,17.61,42.5,300.89,46.31,410.15,0,0-75.05,66-257.85,34.52,0,0-.35-361.97-14.47-395.6,0,0-.02-.17-.23-.48-15.25-33.73-156.62-106.26-209.92-123.4-.08,.01-.1-.07-.18-.06-.1-.07-.18-.06-.18-.06-53.38-17.04-88.55-54.57-93.43-73.25-2.95-11.19-5.95-50.13-9.19-88.36-2.2-25.94-4.61-51.59-7.32-68-6.64-40.67-28.94-92.78-28.69-106.78,.24-14.08,14.32-37.43,24.6-45.28,8.34-6.4,65.12-28.22,110.12-49.57,10.26-4.78,19.84-9.55,28.17-14.16,45.13-24.86,93.67-63.04,102.63-64.84,2.99-.57,8.31,2.29,14.02,7.41,.1,.07,.29,.22,.47,.36,5.98,5.25,12.35,12.74,17.38,21.01,.01,.08,.12,.24,.13,.32,4.61,7.73,7.95,16.14,8.51,24.15,0,0-.02,1.11,0,3.15-1.36,28.63-42.9,107-125.35,133.03l-37.36-1.73-1.62-.04s1.1,44.48,6.43,51.85c.11,.16,.21,.31,.39,.37,9.52,7.5,135.39,20.88,236.78,75.94,0,0,165.77-11.72,237.81-35.33,.25-.03,.42-.06,.57-.16,6.03-2,11.39-3.99,15.94-6.22,.56-.25,1.03-.56,1.6-.81,2.8-1.31,5.25-2.75,7.26-4.29,.24-.12,.4-.22,.55-.33Z"/><path class="cls-7" d="M739.6,647.31c.53,3.33,.99,6.77,1.34,10.04,.29,2.18,.48,4.19,.67,6.3,.41,4.37,.66,8.77,.8,13.01,.03,1.53,.07,3.06,.09,4.5,.13,4.75,.05,9.28-.12,13.73-.76,26.76-5.04,48.19-6.6,55.05-.23,1.48-.46,2.28-.46,2.28-.16,.11-.31,.21-.55,.33-2.19,1.49-4.63,2.92-7.26,4.29-.56,.25-1.03,.56-1.6,.81-65.18,34.1-229.71,55.11-229.71,55.11l43.36,40.18s-70.64-32.78-147.55-60.21c-34.44-12.34-70.08-23.49-101.22-30.22-30.34-6.5-56.35-8.72-72.87-3.61-71.39,22.08-95.62,73.27-95.62,73.27-2.2-25.94-4.61-51.59-7.32-68-6.64-40.67-28.94-92.78-28.69-106.78,19.15,18.39,137.88,2.21,152.15-4.54,66.76-31.6,128.93-129.92,127.17-146.89-1.63-15.96-12.36-21.68-13.72-22.35,5.26,1.77,9.86,4.3,13.93,7.33,.1,.07,.29,.22,.47,.36,7.78,5.94,13.41,13.62,17.38,21.01,.01,.08,.12,.24,.13,.32,6.72,12.64,8.51,24.15,8.51,24.15,0,0-.02,1.11,0,3.15,.04,1.61,.1,3.9,.2,6.61,.98,32.14,4.98,132.61,20.36,143.84,18.3,13.3,119.79,2.95,124.02-13.79,4.24-16.66-18.12-183.65-18.12-183.65,12.72,49.82,27.4,183.69,30,191,2.6,7.32,79.48,9.12,86.01-5.13,6.23-13.27,4.82-93.13,4.68-103.08,4.14,48.75,5.67,123.75,5.67,123.75,14.01,8.6,69.31,1.79,75.24-4.11,5.49-5.42,17.1-41.46,18.97-47.25,.18-.54,.23-.8,.23-.8Z"/><path class="cls-11" d="M249.19,548.35s-2.14,6.24,1.49,11.13c3.63,4.89,61.44-2.22,86-20.66,24.56-18.43,9.33-52.65,9.33-52.65l-96.82,62.17Z"/><path class="cls-8" d="M179.54,668.77l50.07,2.44,1.12,12.02s-11.55-3.63-51.19-14.46Z"/><path class="cls-5" d="M720.26,744.59l15.07,7.61s-124.78,53.32-239.12,60.54c0,0-216.09-61.34-261.79-89.71l-6.43-51.85s31.48,1.66,38.99,1.76c7.51,.1,27.01-8.81,27.01-8.81,0,0,16.33,27.19,33.94,30.2,7.24,1.25,17.81,.08,28.09-1.97,14.76-3,28.99-7.97,32.01-10.93,5.3-4.97,4.25-61.12,4.25-61.12,0,0,11.2,116.11,16.88,126.08,5.61,10.06,106.17,37.99,121.12,9.08,0,0,59.77,8.78,77.22-1.4,17.46-10.17,21.85-30.18,21.85-30.18,0,0,6.63,29.77,30.6,32.01,23.96,2.16,43.55-8.04,51.38-18.21,.73-.95,1.5-2.16,2.32-3.63,7.8-13.65,20.52-47.71,22.2-52.37l-10.95,44.13-4.64,18.76Z"/><path class="cls-5" d="M449.92,1513.35s-.35-361.97-14.47-395.6c-14.2-33.53-156.86-106.82-210.33-123.94,7.47,1.13,246.58,37.16,264.64,53.73,18.45,16.95,40.87,337.73-39.83,465.8Z"/><path class="cls-6" d="M718.63,973.47c-.92,3.96-1.94,7.16-3,9.43-14.17,30.94-51.08,68.16-54.18,85.77-3.01,17.61,42.5,300.89,46.31,410.15,0,0-75.05,66-257.85,34.52,0,0-.35-361.97-14.47-395.6,0,0-.02-.17-.23-.48-.11-.24-.29-.51-.41-.76-4.34-7.58-34.85-49.69-209.51-122.64,6.37,1.11,212.5,38.32,317.71,41.77,106.99,3.39,175.62-62.18,175.62-62.18Z"/><path class="cls-2" d="M249.19,548.35s.46,12.61,29.44,10.86c35.21-2.13,61.13-22.99,61.13-22.99,0,0-25.25,26.34-75.89,26.26-50.64-.08-14.69-14.14-14.69-14.14Z"/><path class="cls-12" d="M334.09,493.83s12.87,13.28,5.67,42.39c0,0,20.76-13.83,6.25-50.04l-11.93,7.66Z"/><path class="cls-12" d="M264.35,538.61s2.76,10.36-5.7,18.74c0,0-8.35-3.07-9.46-9l15.16-9.73Z"/><path class="cls-8" d="M739.6,647.31c.53,3.33,.99,6.77,1.34,10.04,.29,2.18,.48,4.19,.67,6.3,.41,4.37,.66,8.77,.8,13.01,.03,1.53,.07,3.06,.09,4.5,.13,4.75,.05,9.28-.12,13.73-.76,26.76-5.04,48.19-6.6,55.05-.23,1.48-.46,2.28-.46,2.28-.16,.11-.31,.21-.55,.33-2.19,1.49-4.63,2.92-7.26,4.29-.56,.25-1.03,.56-1.6,.81-65.18,34.1-229.71,55.11-229.71,55.11l-261.79-89.71-6.43-51.85s31.35,2.62,45.91,.07c14.56-2.55,83-32.66,118.62-124.72,.98,32.14,4.98,132.61,20.36,143.84,18.3,13.3,119.79,2.95,124.02-13.79,4.24-16.66-18.12-183.65-18.12-183.65,12.72,49.82,27.4,183.69,30,191,2.6,7.32,79.48,9.12,86.01-5.13,6.23-13.27,4.82-93.13,4.68-103.08,4.14,48.75,5.67,123.75,5.67,123.75,14.01,8.6,69.31,1.79,75.24-4.11,5.49-5.42,17.1-41.46,18.97-47.25,.18-.54,.23-.8,.23-.8Z"/><polygon class="cls-8" points="253.58 545.53 241.84 493.43 241.91 529.99 228.45 533.92 226.05 560.14 253.58 545.53"/><path class="cls-8" d="M518.95,765.33s15.09-52.9,17.96-88.76c2.87-35.86-3.7-103.14-3.7-103.14,0,0,14.4,92.54,15.59,110.49,1.19,17.95-18.53,71.56-18.53,71.56,0,0-5.46,5.44-11.32,9.85Z"/><path class="cls-8" d="M629.32,723.93s5.1-26.78,7.35-52.21c2.25-25.43,2.78-97.06,2.78-97.06,0,0,4.69,107.19,3.01,120.89-1.68,13.69-13.14,28.38-13.14,28.38Z"/><path class="cls-8" d="M294.01,664.11s69.81-34.41,98.52-117.58c0,0-22.71,99.19-82.98,137.11l-15.54-19.54Z"/><path class="cls-8" d="M392.53,546.53s-8.95-31.69-27.16-37.34c0,0,1.71-13.06-13.45-25.61,0,0,38.21,12.29,40.62,62.95Z"/><path class="cls-11" d="M105.27,617.5s24.69,6.05,27.96,26.75c3.27,20.69-46.92,13.11-46.92,13.11,0,0,4.17-29.44,18.96-39.86Z"/><path class="cls-13" d="M270.61,439.02s30.21,13.71,58.69,19.04c28.48,5.33,39.12-3.62,39.12-3.62,0,0-46.34-28.76-97.8-15.41Z"/><path class="cls-13" d="M523.6,492.77s17.9,15.13,52.06,29.25c34.16,14.12,57.39,13.3,57.39,13.3,0,0-14.56-36.75-109.46-42.55Z"/><path class="cls-13" d="M428.12,454.5s28.44,10.58,51.57,17.57c23.12,6.99,30.82,5.73,30.82,5.73,0,0-23.8-34.64-82.39-23.3Z"/><path class="cls-13" d="M639.45,574.66s22.22,8.38,51.91,23.17c19.49,9.7,42.35,31.87,42.35,31.87,0,0-13.07-39.15-94.26-55.04Z"/><path class="cls-15" d="M147.37,799.83s-10.38,65.32,46.35,117.42c56.73,52.11,432.01,36.99,453.94,19.99,21.93-17.01-282.46-179.12-384.01-179.46-101.55-.34-116.28,42.05-116.28,42.05Z"/><path class="cls-8" d="M434.8,1116.51s48.41-13.26,54.95-68.97l-264.46-53.67s182.94,82.35,209.51,122.64Z"/><path class="cls-9" d="M234.43,723.03s22.16-30.96,33.06-38.06c10.9-7.11,34.63-10.68,34.63-10.68l-8.1-10.19s-16.9,8.02-27.03,8.83c-10.12,.81-38.99-1.76-38.99-1.76,0,0,1.36,43.95,6.43,51.85Z"/><path class="cls-9" d="M711.33,737.7s-5.38,22.78-84.59,32.27c-79.28,9.59-191.68-1.69-208.66-10.14-14.23-7.04-48.1-50.86-62.07-67.47,14.76-3,28.99-7.97,32.01-10.93,5.3-4.97,4.25-61.12,4.25-61.12,0,0,11.2,116.11,16.88,126.08,5.61,10.06,106.17,37.99,121.12,9.08,0,0,59.77,8.78,77.22-1.4,17.46-10.17,21.85-30.18,21.85-30.18,0,0,6.63,29.77,30.6,32.01,23.96,2.16,43.55-8.04,51.38-18.21Z"/><path class="cls-9" d="M735.86,681.7l-10.95,44.13-11.25,8.23c7.8-13.65,20.52-47.71,22.2-52.37Z"/><path class="cls-10" d="M715.43,949.6s13.3-102.9,16.86-185.4c0,0-28.52,92.57-16.86,185.4Z"/><path class="cls-10" d="M678.12,1466.1s-6.58-215.83-18.71-332.58c0,0,40.56,222.62,37.73,330.04l-19.02,2.55Z"/><path class="cls-10" d="M146.68,926.51s19.94,45.47,71.09,57.98c51.16,12.51,171.02,27.98,171.02,27.98,0,0-186.92-24.24-242.12-85.97Z"/><path class="cls-10" d="M625.84,553.35s9.24,73.02,4.33,116.69c0,0,16.99-45.86-4.33-116.69Z"/><path class="cls-10" d="M718.82,628.85s7.34,39.06-3.1,65.48c0,0,23.55-33.53,3.1-65.48Z"/><path class="cls-10" d="M503.33,494.99s24.06,88.33,22.6,168.83c0,0,16.62-91.79-22.6-168.83Z"/><path class="cls-10" d="M116.14,616.04s37.6-26.51,81.85-36.47c0,0-31.74,31.07-81.85,36.47Z"/><path class="cls-10" d="M96.37,676.28s21.1,28,28.39,61.43c7.3,33.43,4.33,107.65,4.33,107.65,0,0-12.7-124.56-32.72-169.08Z"/><path class="cls-10" d="M455.42,1503.98s30.87-247.25,2.12-368.18c0,0-5.92,144.94-2.12,368.18Z"/><path class="cls-14" d="M411.87,725.08c4.83,13.62,52.43,42.64,83.17,28.32,0,0-41.87-11.42-60.31-16.62-18.45-5.2-22.86-11.7-22.86-11.7Z"/><path class="cls-14" d="M543.72,748.7s68.49,11.98,79.79-23.99c0,0-43.44,27.6-79.79,23.99Z"/><path class="cls-14" d="M681.27,751.37s22.98-20.27,31.72-22.34c0,0-7.12,19.35-31.72,22.34Z"/><path class="cls-5" d="M418.32,692.93s26.74,14.12,66.94,10.35c40.21-3.77,51.65-26.71,51.65-26.71,0,0-52.44,29.74-118.6,16.36Z"/><path class="cls-5" d="M555.91,687.12s13.02,14.64,36.64,16.32c23.62,1.68,39.22-21.42,39.22-21.42,0,0-34.71,15.48-75.86,5.1Z"/><path class="cls-5" d="M649.28,703.23s12.89,10.98,30.6,10.67c17.71-.31,36.27-16.36,36.27-16.36,0,0-20.42,10.08-66.87,5.69Z"/></g></g></g></svg>